PathFileType	4	(X/Y/Z)	\\Move.snu.ac.kr\motion\Animal\091204_091205_Bird\091205_bird\Project 2\Capture day 2\Session 1\pigeon_029.trc
DataRate	CameraRate	NumFrames	NumMarkers	Units	OrigDataRate	OrigDataStartFrame	OrigNumFrames
240.0	240.0	20	14	mm	240.0	70	3339
Frame#	Time	14MarkersBird:Head			14MarkersBird:C_back			14MarkersBird:Spine			14MarkersBird:L-shoulder			14MarkersBird:L-elbow			14MarkersBird:L-wrist			14MarkersBird:L-hand			14MarkersBird:R-shoulder			14MarkersBird:R-elbow			14MarkersBird:R-Wrist			14MarkersBird:R-hand			14MarkersBird:C_Tail			14MarkersBird:L-Tale			14MarkersBird:R-Tale			
		X1	Y1	Z1	X2	Y2	Z2	X3	Y3	Z3	X4	Y4	Z4	X5	Y5	Z5	X6	Y6	Z6	X7	Y7	Z7	X8	Y8	Z8	X9	Y9	Z9	X10	Y10	Z10	X11	Y11	Z11	X12	Y12	Z12	X13	Y13	Z13	X14	Y14	Z14	

2505	10.433	-146.48322	1848.91211	-1493.89429	-94.11915	1851.40552	-1526.81213	-47.07978	1837.41956	-1554.55615	-103.56709	1847.99976	-1488.76685	-66.98866	1857.25793	-1501.11340	-88.10414	1872.28894	-1465.56152	-84.83424	1854.48730	-1445.85217	-135.27711	1843.49890	-1525.71643	-109.64127	1849.99756	-1561.62305	-151.09311	1851.30432	-1560.00073	-162.62093	1816.21558	-1560.03479	43.14627	1753.28638	-1582.23096	32.16375	1799.98853	-1491.92554	-43.26810	1753.53381	-1639.18091	
2506	10.438	-153.97099	1849.91321	-1494.18018	-101.44084	1852.75671	-1526.05920	-53.91461	1838.97656	-1553.17090	-111.33111	1849.25195	-1488.43127	-75.72530	1862.22644	-1505.18079	-92.90303	1881.21143	-1469.14197	-80.23025	1866.33752	-1449.56067	-141.24420	1846.10669	-1525.03381	-113.24578	1857.12756	-1557.91150	-153.88731	1861.09729	-1562.84924	-164.70657	1827.49939	-1574.09070	34.76392	1752.10620	-1578.98730	24.12020	1801.50891	-1489.06555	-51.81164	1755.93176	-1638.44617	
2507	10.442	-161.44684	1851.22815	-1494.40442	-108.35542	1854.47461	-1525.52246	-60.67411	1840.34851	-1551.75586	-119.27336	1850.62646	-1488.24683	-85.20110	1866.11523	-1509.07703	-98.84140	1888.94250	-1473.58826	-78.08347	1878.85022	-1456.57629	-145.67441	1847.91443	-1525.59863	-117.02377	1862.76709	-1553.38867	-155.92957	1870.34216	-1563.55908	-164.84164	1841.56323	-1585.59729	26.43542	1750.97400	-1575.68616	16.16904	1803.49341	-1486.16748	-61.00801	1758.92810	-1638.25488	
2508	10.446	-168.91458	1852.80005	-1494.52295	-115.21808	1856.08972	-1524.97839	-67.35298	1841.51416	-1550.34277	-127.25492	1852.16492	-1488.22949	-95.08399	1869.01550	-1512.44531	-105.66290	1895.64270	-1478.41602	-79.44698	1891.77905	-1465.70337	-150.14397	1849.27222	-1526.31348	-121.03009	1866.89221	-1548.55103	-157.84212	1878.75366	-1562.49683	-163.37010	1857.73206	-1593.33508	18.34167	1750.08057	-1572.55237	8.40004	1805.80237	-1483.36572	-70.37769	1762.48828	-1638.53503	
2509	10.450	-176.38972	1854.52502	-1494.52222	-121.96224	1857.56702	-1524.43225	-73.94334	1842.44910	-1548.96472	-135.10019	1853.72791	-1488.34399	-105.11375	1871.16882	-1515.16394	-113.16615	1901.51062	-1483.21667	-84.52812	1904.43787	-1475.77490	-155.49788	1850.45007	-1526.54419	-125.27086	1869.88257	-1543.83765	-160.04137	1886.33789	-1560.19983	-160.86465	1874.76245	-1596.71045	10.76024	1749.67737	-1569.83411	0.85549	1808.27661	-1480.73706	-79.46294	1766.45691	-1639.13062	
2510	10.454	-183.87726	1856.30579	-1494.43713	-128.60675	1858.91870	-1523.88269	-80.41389	1843.14160	-1547.65552	-142.68625	1855.17126	-1488.50085	-115.08806	1872.89075	-1517.29443	-121.25729	1906.61841	-1487.64709	-92.88421	1915.86108	-1485.87036	-161.61848	1851.52368	-1526.38916	-130.83249	1872.04456	-1540.14160	-162.81151	1893.16992	-1557.14600	-158.10263	1891.29199	-1595.88904	3.99743	1750.01953	-1567.73438	-6.46366	1810.76196	-1478.29553	-87.87745	1770.60913	-1639.86462	
2511	10.458	-191.36473	1858.05737	-1494.34619	-135.17047	1860.15698	-1523.32825	-86.70583	1843.59717	-1546.44458	-149.96422	1856.47119	-1488.60193	-124.67738	1874.46912	-1518.54016	-129.84590	1910.92969	-1491.34460	-103.63599	1925.20630	-1495.15747	-168.08153	1852.51331	-1526.17188	-139.22000	1874.14063	-1537.41162	-166.44998	1899.16980	-1553.75513	-156.06812	1906.22070	-1591.70313	-1.79984	1751.20703	-1566.27673	-13.56419	1813.17444	-1476.04138	-95.33649	1774.69873	-1640.59143	
2512	10.462	-198.82002	1859.72449	-1494.33130	-141.67223	1861.29407	-1522.76758	-92.79909	1843.78479	-1545.30005	-156.94626	1857.65942	-1488.62158	-133.75359	1876.18567	-1518.96191	-138.72302	1914.39990	-1493.88672	-115.65627	1932.16394	-1502.73096	-174.64790	1853.43359	-1526.07922	-148.30322	1875.97778	-1536.28503	-171.23921	1904.10596	-1550.57715	-155.86255	1918.87134	-1585.52478	-6.75787	1753.11499	-1565.27332	-20.42521	1815.58057	-1474.02600	-101.71227	1778.46716	-1641.17456	
2513	10.467	-206.18095	1861.30823	-1494.41150	-148.13086	1862.34229	-1522.19922	-98.75617	1843.75098	-1544.18298	-163.72821	1858.77722	-1488.58655	-142.35292	1878.01123	-1518.43982	-147.48172	1917.03430	-1494.79333	-127.74560	1937.03821	-1507.58325	-181.31355	1854.25732	-1526.18213	-157.07764	1877.53174	-1536.64514	-177.33875	1907.71228	-1548.41748	-158.51617	1928.91785	-1579.21313	-11.20104	1755.48584	-1564.44568	-27.02053	1818.15051	-1472.34412	-107.08418	1781.65698	-1641.47070	
2514	10.471	-213.37961	1862.83289	-1494.54138	-154.56523	1863.31384	-1521.62195	-104.68977	1843.90125	-1543.21509	-170.44994	1859.87842	-1488.48499	-150.35796	1879.76721	-1516.92273	-155.51964	1918.82507	-1493.57776	-138.78040	1940.43762	-1508.63306	-188.13567	1854.89429	-1526.54602	-165.22083	1878.78345	-1538.12720	-184.70912	1909.71667	-1548.24634	-164.68617	1936.06934	-1574.98401	-15.49284	1758.07495	-1563.55884	-33.40086	1820.97083	-1471.03906	-111.73738	1784.04590	-1641.35925	
2515	10.475	-220.39020	1864.29395	-1494.68591	-160.99417	1864.22107	-1521.03430	-111.01632	1844.27234	-1542.23621	-177.23209	1861.00085	-1488.25049	-157.71672	1881.30249	-1514.45959	-162.20352	1919.62683	-1489.89783	-147.82596	1942.81543	-1504.92554	-195.15536	1855.24268	-1527.19373	-172.75513	1879.49524	-1540.36182	-193.14801	1909.77637	-1550.83020	-174.34087	1939.78162	-1574.87122	-19.92846	1760.72314	-1562.46240	-39.74033	1823.90955	-1470.00269	-116.07805	1785.49341	-1640.77222	
2516	10.479	-227.25291	1865.66443	-1494.85498	-167.43652	1865.07605	-1520.43481	-117.80929	1844.81250	-1541.17371	-184.16579	1862.15894	-1487.81970	-164.49962	1882.50464	-1511.05945	-167.26947	1919.14514	-1483.78125	-154.39760	1944.08923	-1496.06860	-202.37289	1855.27429	-1528.01721	-180.15959	1879.39990	-1542.95850	-202.40704	1907.54968	-1556.19641	-186.76747	1939.31665	-1579.75732	-24.68746	1763.35254	-1561.07556	-46.27876	1826.71582	-1468.98779	-120.50881	1785.98242	-1639.70386	
2517	10.483	-234.05870	1866.94080	-1495.08008	-173.91116	1865.89124	-1519.82214	-124.93282	1845.50208	-1540.07654	-191.30765	1863.35632	-1487.19055	-170.83510	1883.26721	-1506.68555	-171.16098	1917.03992	-1475.68787	-158.88937	1943.51709	-1482.62610	-209.76108	1855.07617	-1528.81311	-188.05896	1878.38562	-1545.56775	-212.31807	1902.93091	-1563.38538	-201.07129	1934.15381	-1588.73816	-29.81589	1765.94458	-1559.37354	-53.21952	1829.23401	-1467.73438	-125.33366	1785.62134	-1638.20239	
2518	10.488	-240.90591	1868.17261	-1495.33191	-180.43690	1866.67871	-1519.19495	-132.23257	1846.32251	-1539.01086	-198.64813	1864.56091	-1486.44775	-176.75519	1883.76660	-1501.56152	-174.96413	1913.06287	-1466.35840	-162.74159	1939.99304	-1466.12195	-217.28351	1854.79163	-1529.38416	-196.55583	1876.78894	-1547.73779	-222.84679	1896.20056	-1570.78906	-216.77008	1924.33093	-1599.46545	-35.23981	1768.53552	-1557.37024	-60.66563	1831.48560	-1466.09021	-130.69250	1784.62549	-1636.36389	
2519	10.492	-247.85994	1869.41553	-1495.50562	-187.03259	1867.45093	-1518.55176	-139.55380	1847.25452	-1538.04358	-206.08972	1865.60840	-1485.71582	-182.08423	1884.26416	-1496.04529	-179.94751	1907.12463	-1456.60583	-167.84630	1932.71875	-1448.59705	-224.91118	1854.53796	-1529.63818	-205.26920	1875.02991	-1549.43542	-234.07675	1887.87390	-1576.82239	-233.80867	1910.45386	-1609.12439	-40.83358	1771.19092	-1555.09192	-68.62356	1833.55151	-1464.03662	-136.53394	1783.28772	-1634.31287	
2520	10.496	-254.94386	1870.66357	-1495.51428	-193.71709	1868.21985	-1517.89124	-146.74358	1848.27991	-1537.24146	-213.50491	1866.32141	-1485.02832	-187.58559	1883.35999	-1489.64221	-187.06949	1899.27637	-1447.22131	-175.65642	1921.69031	-1432.03381	-232.59705	1854.39978	-1529.59827	-214.89012	1872.48193	-1551.62866	-246.08150	1878.37378	-1580.37634	-252.00339	1893.52649	-1615.28979	-46.52184	1773.92419	-1552.56641	-77.02214	1835.42139	-1461.66248	-142.65129	1781.94043	-1632.17358	
2521	10.500	-262.14182	1871.87195	-1495.35449	-200.50923	1868.99792	-1517.21204	-153.68933	1849.40076	-1536.64807	-220.82625	1866.75745	-1484.28870	-194.20145	1880.84399	-1482.75879	-196.70537	1889.75598	-1439.02600	-186.77357	1907.62903	-1418.00439	-240.23206	1854.52820	-1529.30286	-224.96457	1869.74536	-1553.12964	-258.72263	1868.00842	-1580.80432	-270.61603	1874.79395	-1616.34106	-52.35555	1776.61511	-1549.83752	-85.70144	1836.97107	-1459.14612	-148.77695	1780.91333	-1630.06726	
2522	10.504	-269.42349	1873.01001	-1495.06299	-207.42787	1869.79736	-1516.51282	-160.38243	1850.91553	-1536.13342	-228.07339	1867.17175	-1483.40381	-201.48222	1877.67737	-1476.39795	-208.64923	1879.11877	-1432.88599	-201.06737	1891.59753	-1407.66650	-247.69096	1855.12939	-1528.75684	-235.42584	1865.73914	-1554.22205	-271.52292	1857.27698	-1577.77466	-288.44000	1855.62561	-1611.52637	-58.49557	1779.02209	-1547.00781	-94.40173	1838.06226	-1456.74182	-154.69063	1780.48511	-1628.11609	
2523	10.508	-276.77390	1874.05396	-1494.65881	-214.49184	1870.63037	-1515.79199	-166.93959	1853.28052	-1535.38489	-235.30511	1867.77844	-1482.39246	-209.41974	1874.06018	-1471.03650	-222.25302	1868.28809	-1429.53650	-217.90236	1874.73645	-1401.90674	-254.94452	1856.26135	-1527.97839	-246.42538	1861.11914	-1553.75439	-283.73419	1847.03528	-1571.37769	-304.23712	1837.43457	-1600.97937	-65.12604	1780.88586	-1544.28516	-102.81425	1838.63440	-1454.71167	-160.30455	1780.84192	-1626.43250	
2524	10.512	-284.19843	1874.96924	-1494.13013	-221.71999	1871.50916	-1515.04834	-173.67543	1855.69067	-1534.49353	-242.58138	1868.66467	-1481.35999	-217.82675	1870.31079	-1466.97229	-236.63811	1858.45959	-1429.28931	-236.28722	1858.30896	-1401.30029	-262.09250	1857.77124	-1527.02527	-256.86823	1856.90869	-1552.42847	-294.59924	1838.33887	-1562.31812	-317.13483	1821.65820	-1585.70581	-72.36814	1782.05359	-1541.96594	-110.71795	1838.68823	-1453.21045	-165.68440	1782.05591	-1625.10962	
